# xmcd
#
# Track frame offsets:
#	150
#	16809
#	35580
#	56152
#	74105
#	89843
#	116998
#	137979
#	160143
#	174686
#	198196
#	214843
#
# Disc length: 3164 seconds
#
# Revision: 0
# Processed by: cddbd v1.5.2PL0 Copyright (c) Steve Scherf et al.
# Submitted via: EZCDAudioConverter 1.1.0.1
#
DISCID=bd0c5a0c
DTITLE=Curtis Blues - Well Worn Blues
DYEAR=2008
DGENRE=Blues
TTITLE0=Baker Man
TTITLE1=Big Road Blues
TTITLE2=Hard Luck Shoes
TTITLE3=Little School Girl
TTITLE4=Easy Riders Blues
TTITLE5=One Kind Favor
TTITLE6=Backseat Of My Car
TTITLE7=Love In Vain
TTITLE8=Second Chance
TTITLE9=Preaching Blues
TTITLE10=Traveling Riverside Blues
TTITLE11=Well Worn Blues
EXTD=
EXTT0=
EXTT1=
EXTT2=
EXTT3=
EXTT4=
EXTT5=
EXTT6=
EXTT7=
EXTT8=
EXTT9=
EXTT10=
EXTT11=
PLAYORDER=
